{"title":"Terminator.Genisys.2015.NEW.TS.x264-MenaceIISociety","uid":12207492,"size":1220448469,"categoryP":"video","categoryS":"movies","magnet":"?xt=urn:btih:20e83cc5394f8974454df2aea84771da538c76a0&amp;dn=Terminator.Genisys.2015.NEW.TS.x264-MenaceIISociety&amp;tr=udp%3A%2F%2Ftracker.openbittorrent.com%3A80&amp;tr=udp%3A%2F%2Fopen.demonii.com%3A1337&amp;tr=udp%3A%2F%2Ftracker.coppersurfer.tk%3A6969&amp;tr=udp%3A%2F%2Fexodus.desync.com%3A6969","seeders":0,"leechers":0,"uploader":"TvTeam","files":4,"time":1439017012,"description":"------------------------------------------------------------------------\n\n &lt;a href=&quot; https://www.torrenting.com&quot; rel=&quot;nofollow&quot; target=&quot;_NEW&quot;&gt; https://www.torrenting.com&lt;/a&gt;\n\nSign up is OPEN - for time being. Come and have fun\n\n.......................................................................................................................[img]http://s30.postimg.org/xl2ub574h/terminator_genisys_ver2_brxlg.jpg[/img]\n\nTerminator.Genisys.2015.NEW.TS.x264-MenaceIISociety &lt;a href=&quot;\nhttp://www.imdb.com/title/tt1340138/&quot; rel=&quot;nofollow&quot; target=&quot;_NEW&quot;&gt;\nhttp://www.imdb.com/title/tt1340138/&lt;/a&gt;\n\nSource: 720p-Hive-CM8 [THANKS]\n\nNOTES: Big thanks to Hive for bringing this for us all :) i just raised some gamma_y and gamma_u, applied some coef adjustments.\n\nGeneral\nComplete name                            : Terminator.Genisys.2015.NEW.TS.x264-MenaceIISociety.mp4\nFormat                                   : MPEG-4\nFormat profile                           : Base Media\nCodec ID                                 : isom\nFile size                                : 1.12 GiB\nDuration                                 : 1h 57mn\nOverall bit rate mode                    : Variable\nOverall bit rate                         : 1 357 Kbps\nEncoded date                             : UTC 2015-07-18 00:21:13\nTagged date                              : UTC 2015-07-18 00:21:13\n\nVideo\nID                                       : 1\nFormat                                   : AVC\nFormat/Info                              : Advanced Video Codec\nFormat profile                           : &lt;a class=&quot;__cf_email__&quot; href=&quot;/cdn-cgi/l/email-protection&quot; data-cfemail=&quot;6820010f0028245c4659&quot;&gt;[email&amp;#160;protected]&lt;/a&gt;&lt;script data-cfhash='f9e31' type=&quot;text/javascript&quot;&gt;\n/* &lt;![CDATA[ */!function(){try{var t=&quot;currentScript&quot;in document?document.currentScript:function(){for(var t=document.getElementsByTagName(&quot;script&quot;),e=t.length;e--;)if(t[e].getAttribute(&quot;data-cfhash&quot;))return t[e]}();if(t&amp;&amp;t.previousSibling){var e,r,n,i,c=t.previousSibling,a=c.getAttribute(&quot;data-cfemail&quot;);if(a){for(e=&quot;&quot;,r=parseInt(a.substr(0,2),16),n=2;a.length-n;n+=2)i=parseInt(a.substr(n,2),16)^r,e+=String.fromCharCode(i);e=document.createTextNode(e),c.parentNode.replaceChild(e,c)}t.parentNode.removeChild(t);}}catch(u){}}()/* ]]&gt; */&lt;/script&gt;\nFormat settings, CABAC                   : Yes\nFormat settings, ReFrames                : 3 frames\nCodec ID                                 : avc1\nCodec ID/Info                            : Advanced Video Coding\nDuration                                 : 1h 57mn\nBit rate mode                            : Variable\nBit rate                                 : 1 216 Kbps\nMaximum bit rate                         : 40.0 Mbps\nWidth                                    : 720 pixels\nHeight                                   : 384 pixels\nDisplay aspect ratio                     : 1.85:1\nFrame rate mode                          : Constant\nFrame rate                               : 29.970 fps\nColor space                              : YUV\nChroma subsampling                       : 4:2:0\nBit depth                                : 8 bits\nScan type                                : Progressive\nBits/(Pixel*Frame)                       : 0.147\nStream size                              : 1.00 GiB (90%)\nWriting library                          : x264 core 146 r2538 121396c\n\nAudio\nID                                       : 2\nFormat                                   : AAC\nFormat/Info                              : Advanced Audio Codec\nFormat profile                           : LC\nCodec ID                                 : 40\nDuration                                 : 1h 57mn\nBit rate mode                            : Variable\nBit rate                                 : 136 Kbps\nMaximum bit rate                         : 152 Kbps\nChannel(s)                               : 2 channels\nChannel positions                        : Front: L R\nSampling rate                            : 48.0 KHz\nCompression mode                         : Lossy\nStream size                              : 115 MiB (10%)\nLanguage                                 : English\nEncoded date                             : UTC 2015-07-17 22:31:17\nTagged date                              : UTC 2015-07-18 00:38:05\n\n[img]http://s7.postimg.org/fh9aws1cb/vlcsnap_2015_07_18_02h45m27s272.jpg[/img]\n[img]http://s7.postimg.org/5vfqgha6j/vlcsnap_2015_07_18_02h47m58s030.jpg[/img]\n[img]http://s7.postimg.org/zfkklewnf/vlcsnap_2015_07_18_02h49m15s106.jpg[/img]\n[img]http://s7.postimg.org/yfyv3g6vf/vlcsnap_2015_07_18_02h54m13s948.jpg[/img]\n[img]http://s7.postimg.org/nwyvea47f/vlcsnap_2015_07_18_02h54m58s676.jpg[/img]\n[img]http://s7.postimg.org/enwp45vbf/vlcsnap_2015_07_18_02h55m53s846.jpg[/img]\n[img]http://s7.postimg.org/c2r4gn5xn/vlcsnap_2015_07_18_02h56m09s467.jpg[/img]\n[img]http://s7.postimg.org/re0xh939n/vlcsnap_2015_07_18_02h56m43s063.jpg[/img]\n[img]http://s7.postimg.org/t3em328cr/vlcsnap_2015_07_18_02h59m28s541.jpg[/img]\n[img]http://s7.postimg.org/5xzm3bdu3/vlcsnap_2015_07_18_03h00m58s413.jpg[/img]\n[img]http://s7.postimg.org/fl34d16tn/vlcsnap_2015_07_18_03h01m30s598.jpg[/img]\n[img]http://s7.postimg.org/thfy2nsgb/vlcsnap_2015_07_18_03h03m14s768.jpg[/img]\n[img]http://s7.postimg.org/x9uv4nikr/vlcsnap_2015_07_18_03h04m15s772.jpg[/img]\n[img]http://s7.postimg.org/s3ob7ct6z/vlcsnap_2015_07_18_03h04m41s283.jpg[/img]\n[img]http://s7.postimg.org/417hchcjv/vlcsnap_2015_07_18_03h07m49s514.jpg[/img]\n[img]http://s7.postimg.org/lfrpkr9or/vlcsnap_2015_07_18_03h11m23s801.jpg[/img]\n[img]http://s7.postimg.org/r57y52fuz/vlcsnap_2015_07_18_03h11m38s833.jpg[/img] \n\n[img]http://s17.postimg.org/r1iiyw8yn/Untitled_1.png[/img]","torrent":{"xt":"urn:btih:20e83cc5394f8974454df2aea84771da538c76a0","amp;dn":"Terminator.Genisys.2015.NEW.TS.x264-MenaceIISociety","amp;tr":["udp%3A%2F%2Ftracker.openbittorrent.com%3A80","udp%3A%2F%2Fopen.demonii.com%3A1337","udp%3A%2F%2Ftracker.coppersurfer.tk%3A6969","udp%3A%2F%2Fexodus.desync.com%3A6969"],"infoHash":"20e83cc5394f8974454df2aea84771da538c76a0","infoHashBuffer":{"type":"Buffer","data":[32,232,60,197,57,79,137,116,69,77,242,174,168,71,113,218,83,140,118,160]},"announce":[],"urlList":[]}}